<?xml version="1.0" encoding="UTF-8" standalone="no"?>
<svg
   xmlns:dc="http://purl.org/dc/elements/1.1/"
   xmlns:cc="http://creativecommons.org/ns#"
   xmlns:rdf="http://www.w3.org/1999/02/22-rdf-syntax-ns#"
   xmlns:svg="http://www.w3.org/2000/svg"
   xmlns="http://www.w3.org/2000/svg"
   xmlns:sodipodi="http://sodipodi.sourceforge.net/DTD/sodipodi-0.dtd"
   xmlns:inkscape="http://www.inkscape.org/namespaces/inkscape"
   viewBox="0 0 1031.7523 640.15162"
   version="1.1"
   id="svg10"
   sodipodi:docname="cloud.svg"
   width="1031.7523"
   height="640.15161"
   inkscape:version="1.0.1 (0767f8302a, 2020-10-17)">
  <metadata
     id="metadata16">
    <rdf:RDF>
      <cc:Work
         rdf:about="">
        <dc:format>image/svg+xml</dc:format>
        <dc:type
           rdf:resource="http://purl.org/dc/dcmitype/StillImage" />
        <dc:title></dc:title>
      </cc:Work>
    </rdf:RDF>
  </metadata>
  <defs
     id="defs14" />
  <sodipodi:namedview
     pagecolor="#ffffff"
     bordercolor="#666666"
     borderopacity="1"
     objecttolerance="10"
     gridtolerance="10"
     guidetolerance="10"
     inkscape:pageopacity="0"
     inkscape:pageshadow="2"
     inkscape:window-width="1920"
     inkscape:window-height="1011"
     id="namedview12"
     showgrid="false"
     inkscape:zoom="0.57449451"
     inkscape:cx="799.72539"
     inkscape:cy="511.15684"
     inkscape:window-x="1920"
     inkscape:window-y="0"
     inkscape:window-maximized="1"
     inkscape:current-layer="g8" />
  <g
     transform="translate(-989.48001,-413.53498)"
     id="g8">
    <path
       d="m 1545.3872,421.94201 c -57.1659,0 -107.9466,27.36003 -139.9621,69.6909 -27.1443,-17.23738 -59.3347,-27.20194 -93.8704,-27.20194 -87.1876,0 -159.5252,63.64044 -173.0918,146.99462 -80.1141,16.19525 -140.48471,86.98111 -140.48471,171.87161 0,96.85378 78.56471,175.35904 175.41671,175.35904 39.4981,0 75.9459,-13.07256 105.2626,-35.10678 17.0514,5.52911 35.2203,8.54429 54.1137,8.54429 18.2898,0 35.968,-2.82639 52.544,-8.02108 31.0985,28.09286 72.3171,45.21939 117.5272,45.21939 45.9039,0 87.7214,-17.63095 118.9799,-46.49904 28.158,19.2692 62.2306,30.51453 98.9276,30.51453 29.1233,0 56.5633,-7.0846 80.7335,-19.64492 11.6696,2.44641 23.7554,3.71992 36.154,3.71992 96.8519,0 175.359,-78.50711 175.359,-175.35903 0,-96.85192 -78.5071,-175.35904 -175.359,-175.35904 -0.9509,0 -1.9009,0.043 -2.8482,0.058 -31.225,-37.83534 -77.9956,-62.36079 -130.547,-63.76134 -27.9757,-59.69361 -88.5714,-101.01823 -158.8519,-101.01823 z"
       fill="#e6efff6e6"
       id="path2"
       style="fill:#a30082;fill-opacity:0;stroke-width:1.85996" />
    <path
       d="m 1546.5415,480.64823 c -51.4834,0 -97.3235,23.41926 -127.4714,59.79618 -24.3689,-14.00217 -52.6195,-22.25577 -82.8711,-22.25577 -80.1322,0 -146.8278,56.35328 -161.3503,130.87286 -72.948,16.51541 -127.3661,80.54055 -127.3661,157.02774 0,89.00011 73.6958,161.28295 164.4356,161.28295 35.7695,0 68.8939,-11.31102 95.8897,-30.35922 15.0645,4.46067 30.9928,6.92322 47.5265,6.92322 15.8627,0 31.1736,-2.29188 45.6962,-6.41023 28.8043,24.36779 66.2922,39.23068 107.2886,39.23068 41.1554,0 78.7084,-15.00189 107.5496,-39.53919 25.5486,16.03459 55.8554,25.4361 88.4142,25.4361 26.4587,0 51.4535,-6.21953 73.6172,-17.12917 10.2464,1.95579 20.7767,3.07695 31.58,3.07695 90.7399,0 164.4356,-72.28284 164.4356,-161.28295 0,-88.89672 -73.5268,-161.11557 -164.1228,-161.28296 -28.4362,-32.40888 -69.8224,-53.5832 -116.2296,-55.89871 -26.9724,-52.96617 -82.6286,-89.48749 -147.0251,-89.48749 z m 0,13.12832 c 60.5936,0 112.79,34.96397 136.8811,85.3849 a 6.6931366,6.5648124 0 0 0 5.9083,3.7949 c 45.2778,1.19715 85.5197,21.88489 112.4117,53.84741 a 6.6931366,6.5648124 0 0 0 5.2808,2.41036 c 0.9837,-0.0147 1.8044,-0.0512 2.4574,-0.0512 83.5069,0 151.0506,66.24873 151.0506,148.15464 0,81.90589 -67.5437,148.15464 -151.0506,148.15464 -10.7095,0 -21.1617,-1.05849 -31.2137,-3.12815 a 6.6931366,6.5648124 0 0 0 -4.4441,0.56403 c -20.8103,10.60143 -44.443,16.61552 -69.5399,16.61552 -31.652,0 -60.9583,-9.55085 -85.2234,-25.84637 a 6.6931366,6.5648124 0 0 0 -8.3135,0.61539 c -26.9388,24.40882 -62.8423,39.33407 -102.4265,39.33407 -38.9752,0 -74.4287,-14.46494 -101.2236,-38.20504 a 6.6931366,6.5648124 0 0 0 -6.4833,-1.38462 c -14.2891,4.39634 -29.497,6.76928 -45.2779,6.76928 -16.2948,0 -31.9448,-2.5551 -46.6381,-7.23074 a 6.6931366,6.5648124 0 0 0 -6.1174,1.02564 c -25.2574,18.61924 -56.6099,29.64045 -90.6629,29.64045 -83.5069,0 -151.0507,-66.24874 -151.0507,-148.15464 0,-71.80366 51.9704,-131.56866 120.9865,-145.23195 a 6.6931366,6.5648124 0 0 0 5.2809,-5.33337 c 11.6865,-70.41535 73.8932,-124.20533 149.0646,-124.20533 29.7747,0 57.4532,8.41394 80.8333,22.97455 a 6.6931366,6.5648124 0 0 0 8.9407,-1.58976 c 27.583,-35.78941 71.2697,-58.92314 120.5681,-58.92314 z"
       id="path4"
       style="fill:#a30082;stroke:#000000;stroke-width:1.65699;stroke-opacity:0.326741" />
    <path
       d="m 1542.7832,445.69372 c -65.5785,0 -122.073,39.88129 -147.9822,97.29831 0.1999,0.12926 0.3816,0.2767 0.5812,0.40686 29.7761,-40.52856 77.0117,-66.72612 130.1973,-66.72612 53.3493,0 100.7207,26.3817 130.4875,67.13345 l -1.2207,0.2325 c 6.442,9.03718 12.0284,18.74097 16.6814,29.00424 10.0836,0.28099 19.963,1.49273 29.5269,3.54546 l 0.872,0.17428 c 23.5248,5.18501 45.1933,15.48529 63.8785,29.75938 l -0.7557,0.17428 c 9.6647,6.93487 18.4781,14.83115 26.3296,23.42436 0.9488,-0.013 1.8955,-0.058 2.848,-0.058 97.023,0 175.651,71.05239 175.651,158.67704 0,22.55389 -5.1965,43.98623 -14.589,63.41353 20.8204,-26.07666 33.1297,-58.04568 33.1297,-92.64841 0,-87.62651 -78.6262,-158.67704 -175.6492,-158.67704 -0.7918,0 -1.594,0.0487 -2.3832,0.058 -29.3725,-35.17373 -72.2632,-57.8541 -120.3748,-59.46111 -26.2292,-56.55771 -82.2643,-95.73036 -147.2272,-95.73036 z m -230.5236,39.29169 c -4.1102,-0.067 -8.2101,0.0716 -12.3803,0.34874 -63.7185,4.23513 -115.79,48.02607 -135.8944,107.12262 25.4462,-42.88885 69.5477,-72.63149 121.4797,-76.08358 30.5703,-2.03201 59.7104,5.3219 84.8031,19.70443 6.0945,-9.7462 13.2314,-18.75957 21.1571,-26.91178 -23.2347,-14.93847 -50.3938,-23.71079 -79.1637,-24.1795 z m 239.2282,55.50869 c -46.2535,0.1222 -88.8261,18.78375 -119.3276,49.34664 3.477,2.49569 6.9105,5.05389 10.1715,7.78859 32.7781,-23.32578 74.3631,-35.1384 118.1076,-30.22438 92.2652,10.36594 158.9021,91.21438 148.8546,180.64877 -1.2497,11.12127 -3.5937,21.89919 -6.9749,32.142 9.48,-17.48997 15.731,-37.0151 18.0764,-57.89131 10.0479,-89.43439 -56.5893,-170.34086 -148.8546,-180.70642 -6.7328,-0.75645 -13.4449,-1.12182 -20.0522,-1.10436 z m -282.6025,46.90637 c -12.8929,0.009 -25.9893,1.487 -39.1169,4.53366 -38.0641,8.83407 -70.2024,29.56594 -93.1134,57.13615 1.6057,-8.55693 3.9404,-16.83674 6.8585,-24.87698 -49.5941,12.93808 -90.0891,47.30998 -110.3181,92.24293 23.9042,-32.13455 59.5076,-55.54775 100.8453,-64.16867 -23.2068,29.35763 -36.2228,65.99701 -35.3393,104.15785 10.0806,-64.67273 59.7569,-120.41392 129.2097,-136.53234 42.2174,-9.79754 84.2711,-3.2289 119.2124,15.46093 8.21,-4.73602 16.9721,-8.81436 26.0971,-12.206 -28.9596,-22.72315 -65.6529,-35.77264 -104.3327,-35.7466 z"
       fill="#ccc"
       id="path6"
       style="fill:#195e77;fill-opacity:0;stroke-width:1.85996" />
  </g>
</svg>
