<?xml version="1.0" encoding="UTF-8" standalone="no"?>
<svg
   xmlns:dc="http://purl.org/dc/elements/1.1/"
   xmlns:cc="http://creativecommons.org/ns#"
   xmlns:rdf="http://www.w3.org/1999/02/22-rdf-syntax-ns#"
   xmlns:svg="http://www.w3.org/2000/svg"
   xmlns="http://www.w3.org/2000/svg"
   xmlns:xlink="http://www.w3.org/1999/xlink"
   xmlns:sodipodi="http://sodipodi.sourceforge.net/DTD/sodipodi-0.dtd"
   xmlns:inkscape="http://www.inkscape.org/namespaces/inkscape"
   viewBox="0 0 230.68726 117.67154"
   version="1.1"
   id="svg1061"
   sodipodi:docname="DMCV-2.svg"
   width="230.68726"
   height="117.67155"
   inkscape:version="1.0.2 (394de47547, 2021-03-26)">
  <metadata
     id="metadata1065">
    <rdf:RDF>
      <cc:Work
         rdf:about="">
        <dc:format>image/svg+xml</dc:format>
        <dc:type
           rdf:resource="http://purl.org/dc/dcmitype/StillImage" />
        <dc:title>Logo 3_1</dc:title>
      </cc:Work>
    </rdf:RDF>
  </metadata>
  <sodipodi:namedview
     pagecolor="#ffffff"
     bordercolor="#666666"
     borderopacity="1"
     objecttolerance="10"
     gridtolerance="10"
     guidetolerance="10"
     inkscape:pageopacity="0"
     inkscape:pageshadow="2"
     inkscape:window-width="1920"
     inkscape:window-height="1011"
     id="namedview1063"
     showgrid="false"
     inkscape:zoom="2.884393"
     inkscape:cx="191.51926"
     inkscape:cy="39.464763"
     inkscape:window-x="1920"
     inkscape:window-y="0"
     inkscape:window-maximized="1"
     inkscape:current-layer="g1312" />
  <defs
     id="defs1009">
    <style
       id="style1001">.cls-1{fill:url(#linear-gradient);}.cls-2{fill:url(#linear-gradient-2);}.cls-3{fill:#2099d0;}.cls-4{fill:#4e2e7c;}</style>
    <linearGradient
       id="linear-gradient"
       x1="100.65"
       y1="17.9"
       x2="42.790001"
       y2="78.82"
       gradientUnits="userSpaceOnUse">
      <stop
         offset="0"
         stop-color="#2099d0"
         id="stop1003" />
      <stop
         offset="1"
         stop-color="#8661b1"
         id="stop1005" />
    </linearGradient>
    <linearGradient
       id="linear-gradient-2"
       x1="45.990002"
       y1="69.489998"
       x2="12.98"
       y2="45.52"
       xlink:href="#linear-gradient"
       gradientTransform="translate(226.63248,51.364245)" />
  </defs>
  <title
     id="title1011">Logo 3_1</title>
  <g
     id="Layer_2"
     data-name="Layer 2"
     transform="translate(-121.64442,-23.173513)">
    <g
       id="Layer_1-2"
       data-name="Layer 1">
      <g
         style="fill:#000;fill-opacity:0.419148;fill-rule:evenodd;stroke:#000;stroke-linecap:round;stroke-linejoin:round;stroke-opacity:1"
         id="g1312"
         transform="matrix(1.2886931,0,0,1.2886931,229.40383,163.5667)">
        <symbol
           id="A"
           overflow="visible"
           style="fill:#000;fill-opacity:0.419148;stroke:#000;stroke-opacity:1">
          <path
             d="M 79.773,0 H 4.546 C 2.045,0 0,2.319 0,4.87 v 53.565 c 0,2.55 2.045,4.87 4.546,4.87 h 25.682 c 2.727,9.971 -0.909,11.362 -17.273,11.362 V 80 h 55.454 v -5.334 c -16.364,0 -17.955,-1.391 -15.227,-11.362 h 26.591 c 2.5,0 5.227,-2.319 5.227,-4.87 V 4.87 C 85,2.319 82.273,0 79.773,0 Z M 78.409,6.493 V 56.58 H 6.364 V 6.493 Z M 54.724,22.303 41.542,14.651 28.36,22.303 v 0.231 l 13.182,7.652 13.182,-7.884 z M 42.96,32.395 V 47.699 L 56.142,40.047 V 24.743 Z m -2.71,0 -13.182,-7.652 v 15.304 l 13.182,7.652 z"
             fill="#0078d7"
             stroke="none"
             id="path1298"
             style="fill:#000;fill-opacity:0.419148;stroke:#000;stroke-opacity:1" />
        </symbol>
        <rect
           style="fill:#000;fill-opacity:0.419148;stroke:#000;stroke-width:0.586542;stroke-opacity:1"
           id="rect1318"
           width="23.272863"
           height="23.473183"
           x="95.262825"
           y="-93.536018"
           transform="matrix(0.85779822,-0.51398658,0.87240485,0.48878399,0,0)" />
        <rect
           style="fill:#000;fill-opacity:0.419148;fill-rule:evenodd;stroke:#000;stroke-width:0.555298;stroke-linecap:round;stroke-linejoin:round;stroke-opacity:1"
           id="rect1318-3"
           width="22.545198"
           height="21.718061"
           x="-68.097977"
           y="-47.260201"
           transform="matrix(-0.00140238,0.99999902,-0.86255111,0.50596994,0,0)" />
        <rect
           style="fill:#000;fill-opacity:0.419148;fill-rule:evenodd;stroke:#000;stroke-width:0.551435;stroke-linecap:round;stroke-linejoin:round;stroke-opacity:1"
           id="rect1318-3-6"
           width="21.553682"
           height="22.402037"
           x="-21.909023"
           y="69.395714"
           transform="matrix(-0.86923969,-0.49439089,-0.00569057,-0.99998381,0,0)" />
        <rect
           style="fill:#000;fill-opacity:0.419148;fill-rule:evenodd;stroke:#000;stroke-width:0.586542;stroke-linecap:round;stroke-linejoin:round;stroke-opacity:1"
           id="rect1318-1"
           width="23.272863"
           height="23.473183"
           x="43.28101"
           y="-67.953911"
           transform="matrix(0.85779822,-0.51398658,0.87240485,0.48878399,0,0)" />
        <rect
           style="fill:#000;fill-opacity:0.419148;fill-rule:evenodd;stroke:#000;stroke-width:0.555298;stroke-linecap:round;stroke-linejoin:round;stroke-opacity:1"
           id="rect1318-3-2"
           width="22.545198"
           height="21.718061"
           x="-41.918983"
           y="-21.481745"
           transform="matrix(-0.00140238,0.99999902,-0.86255111,0.50596994,0,0)" />
        <rect
           style="fill:#000;fill-opacity:0.419148;fill-rule:evenodd;stroke:#000;stroke-width:0.551435;stroke-linecap:round;stroke-linejoin:round;stroke-opacity:1"
           id="rect1318-3-6-7"
           width="21.553682"
           height="22.402037"
           x="4.0541134"
           y="17.336843"
           transform="matrix(-0.86923969,-0.49439089,-0.00569057,-0.99998381,0,0)" />
        <rect
           style="fill:#000;fill-opacity:0.419148;fill-rule:evenodd;stroke:#000;stroke-width:0.586542;stroke-linecap:round;stroke-linejoin:round;stroke-opacity:1"
           id="rect1318-0"
           width="23.272863"
           height="23.473183"
           x="69.692993"
           y="-119.41586"
           transform="matrix(0.85779822,-0.51398658,0.87240485,0.48878399,0,0)" />
        <rect
           style="fill:#000;fill-opacity:0.419148;fill-rule:evenodd;stroke:#000;stroke-width:0.555298;stroke-linecap:round;stroke-linejoin:round;stroke-opacity:1"
           id="rect1318-3-9"
           width="22.545198"
           height="21.718061"
           x="-93.736496"
           y="4.3859196"
           transform="matrix(-0.00140238,0.99999902,-0.86255111,0.50596994,0,0)" />
        <rect
           style="fill:#000;fill-opacity:0.419148;fill-rule:evenodd;stroke:#000;stroke-width:0.551435;stroke-linecap:round;stroke-linejoin:round;stroke-opacity:1"
           id="rect1318-3-6-3"
           width="21.553682"
           height="22.402037"
           x="29.46784"
           y="43.502144"
           transform="matrix(-0.86923969,-0.49439089,-0.00569057,-0.99998381,0,0)" />
        <rect
           style="fill:#000;fill-opacity:0.419148;fill-rule:evenodd;stroke:#000;stroke-width:0.586542;stroke-linecap:round;stroke-linejoin:round;stroke-opacity:1"
           id="rect1318-6"
           width="23.272863"
           height="23.473183"
           x="68.534882"
           y="-42.194977"
           transform="matrix(0.85779822,-0.51398658,0.87240485,0.48878399,0,0)" />
        <rect
           style="fill:#000;fill-opacity:0.419148;fill-rule:evenodd;stroke:#000;stroke-width:0.555298;stroke-linecap:round;stroke-linejoin:round;stroke-opacity:1"
           id="rect1318-3-0"
           width="22.545198"
           height="21.718061"
           x="-16.398148"
           y="-72.691139"
           transform="matrix(-0.00140238,0.99999902,-0.86255111,0.50596994,0,0)" />
        <rect
           style="fill:#000;fill-opacity:0.419148;fill-rule:evenodd;stroke:#000;stroke-width:0.551435;stroke-linecap:round;stroke-linejoin:round;stroke-opacity:1"
           id="rect1318-3-6-6"
           width="21.553682"
           height="22.402037"
           x="-46.887501"
           y="42.911915"
           transform="matrix(-0.86923969,-0.49439089,-0.00569057,-0.99998381,0,0)" />
      </g>
    </g>
  </g>
</svg>
