<?xml version="1.0" encoding="UTF-8" standalone="no"?>
<svg
   xmlns:dc="http://purl.org/dc/elements/1.1/"
   xmlns:cc="http://creativecommons.org/ns#"
   xmlns:rdf="http://www.w3.org/1999/02/22-rdf-syntax-ns#"
   xmlns:svg="http://www.w3.org/2000/svg"
   xmlns="http://www.w3.org/2000/svg"
   xmlns:sodipodi="http://sodipodi.sourceforge.net/DTD/sodipodi-0.dtd"
   xmlns:inkscape="http://www.inkscape.org/namespaces/inkscape"
   version="1.1"
   viewBox="0 0 158 158"
   id="svg125"
   sodipodi:docname="yaml.svg"
   inkscape:version="1.0.1 (0767f8302a, 2020-10-17)">
  <metadata
     id="metadata131">
    <rdf:RDF>
      <cc:Work
         rdf:about="">
        <dc:format>image/svg+xml</dc:format>
        <dc:type
           rdf:resource="http://purl.org/dc/dcmitype/StillImage" />
        <dc:title></dc:title>
      </cc:Work>
    </rdf:RDF>
  </metadata>
  <defs
     id="defs129" />
  <sodipodi:namedview
     pagecolor="#ffffff"
     bordercolor="#666666"
     borderopacity="1"
     objecttolerance="10"
     gridtolerance="10"
     guidetolerance="10"
     inkscape:pageopacity="0"
     inkscape:pageshadow="2"
     inkscape:window-width="1920"
     inkscape:window-height="1011"
     id="namedview127"
     showgrid="false"
     inkscape:zoom="3.9696438"
     inkscape:cx="66.848287"
     inkscape:cy="80.798411"
     inkscape:window-x="0"
     inkscape:window-y="0"
     inkscape:window-maximized="1"
     inkscape:current-layer="svg125" />
  <g
     transform="matrix(3.3689782,0,0,3.7339977,2.9276686,-9.5927982)"
     fill="#f4f6f8"
     stroke="#0f2d59"
     stroke-linecap="round"
     stroke-linejoin="round"
     id="g74">
    <path
       d="m 31.5,5.5 h -22 a 1,1 0 0 0 -1,1 v 35 a 1,1 0 0 0 1,1 h 29 a 1,1 0 0 0 1,-1 v -28"
       id="path68" />
    <path
       d="m 13,26.5 h 22 m -22,9 h 17 m -17,-3 h 22 m -22,-3 h 22 m -22,-6 h 22 m -22,-3 h 22 m -22,-3 h 22"
       id="path70" />
    <path
       d="m 31.5,5.5 v 7 a 1,1 0 0 0 1,1 h 7 z"
       id="path72" />
  </g>
  <rect
     style="fill:#000051;fill-opacity:1;stroke:#000000;stroke-opacity:0;stroke-linejoin:round;stroke-linecap:round;paint-order:stroke fill markers"
     id="rect972"
     width="137.73997"
     height="45.215488"
     x="13.384889"
     y="98.28801" />
  <text
     xml:space="preserve"
     style="font-style:normal;font-weight:normal;font-size:40px;line-height:1.25;font-family:sans-serif;fill:#000000;fill-opacity:1;stroke:none"
     x="31.49383"
     y="133.99744"
     id="text976"><tspan
       sodipodi:role="line"
       id="tspan974"
       x="31.49383"
       y="133.99744"
       style="fill:#ffffff;fill-opacity:1">YAML</tspan></text>
</svg>
